SplineFontDB: 3.2
FontName: Sound_Mess
FullName: Sound_Mess
FamilyName: Sound_Mess
Weight: Regular
Copyright: Copyright (c) 2021
UComments: "2021-12-29: Created with FontForge (http://fontforge.org)"
Version: 001.000
ItalicAngle: 0
UnderlinePosition: -25.6
UnderlineWidth: 12.8
Ascent: 205
Descent: 51
InvalidEm: 0
LayerCount: 2
Layer: 0 0 "Back" 1
Layer: 1 0 "Fore" 0
XUID: [1021 739 -1243588870 9895223]
FSType: 0
OS2Version: 0
OS2_WeightWidthSlopeOnly: 0
OS2_UseTypoMetrics: 1
CreationTime: 1640798016
ModificationTime: 1640806457
PfmFamily: 17
TTFWeight: 400
TTFWidth: 5
LineGap: 23
VLineGap: 0
OS2TypoAscent: 0
OS2TypoAOffset: 1
OS2TypoDescent: 0
OS2TypoDOffset: 1
OS2TypoLinegap: 23
OS2WinAscent: 0
OS2WinAOffset: 1
OS2WinDescent: 0
OS2WinDOffset: 1
HheadAscent: 0
HheadAOffset: 1
HheadDescent: 0
HheadDOffset: 1
OS2Vendor: 'PfEd'
MarkAttachClasses: 1
DEI: 91125
LangName: 1033
Encoding: ISO8859-1
UnicodeInterp: none
NameList: AGL For New Fonts
DisplaySize: -48
AntiAlias: 1
FitToEm: 0
WinInfo: 48 16 4
BeginPrivate: 0
EndPrivate
BeginChars: 256 52

StartChar: A
Encoding: 65 65 0
Width: 256
Flags: HW
LayerCount: 2
Fore
SplineSet
192 -51 m 5
 128 -51 l 5
 64 -51 l 5
 96 61 l 5
 128 173 l 5
 160 61 l 5
 192 -51 l 5
171 -27 m 5
 150 48 l 5
 128 123 l 5
 107 48 l 5
 85 -27 l 5
 128 -27 l 5
 171 -27 l 5
EndSplineSet
Validated: 1
EndChar

StartChar: B
Encoding: 66 66 1
Width: 256
Flags: HW
LayerCount: 2
Fore
SplineSet
102 77 m 1
 102 141 l 1
 102 205 l 1
 154 173 l 1
 205 141 l 1
 154 109 l 1
 102 77 l 1
113 98 m 1
 148 119 l 1
 182 141 l 1
 148 162 l 1
 113 183 l 1
 113 141 l 1
 113 98 l 1
102 -51 m 1
 102 13 l 1
 102 77 l 1
 154 45 l 1
 205 13 l 1
 154 -19 l 1
 102 -51 l 1
113 -30 m 1
 148 -9 l 1
 182 13 l 1
 148 34 l 1
 113 55 l 1
 113 13 l 1
 113 -30 l 1
102 -51 m 1
 69 13 l 1
 35 77 l 1
 69 141 l 1
 102 205 l 1
 102 77 l 1
 102 -51 l 1
95 -9 m 1
 95 76 l 1
 95 162 l 1
 73 119 l 1
 50 76 l 1
 73 33 l 1
 95 -9 l 1
EndSplineSet
Validated: 5
EndChar

StartChar: C
Encoding: 67 67 2
Width: 256
Flags: HW
LayerCount: 2
Fore
SplineSet
110 96 m 1
 110 138 l 1
 110 179 l 1
 161 158 l 1
 212 138 l 1
 161 117 l 1
 110 96 l 1
121 110 m 1
 155 124 l 1
 189 138 l 1
 155 151 l 1
 121 165 l 1
 121 138 l 1
 121 110 l 1
110 -51 m 1
 76 6 l 1
 42 64 l 1
 76 122 l 1
 110 179 l 1
 110 64 l 1
 110 -51 l 1
102 -14 m 1
 102 64 l 1
 102 141 l 1
 80 102 l 1
 57 64 l 1
 80 25 l 1
 102 -14 l 1
110 -51 m 1
 110 -10 l 1
 110 32 l 1
 161 11 l 1
 212 -10 l 1
 161 -30 l 1
 110 -51 l 1
121 -38 m 1
 155 -24 l 1
 189 -10 l 1
 155 4 l 1
 121 18 l 1
 121 -10 l 1
 121 -38 l 1
EndSplineSet
Validated: 5
EndChar

StartChar: D
Encoding: 68 68 3
Width: 256
Flags: HW
LayerCount: 2
Fore
SplineSet
77 -51 m 1
 77 77 l 1
 77 205 l 1
 128 141 l 1
 179 77 l 1
 128 13 l 1
 77 -51 l 1
95 -2 m 1
 125 36 l 1
 156 74 l 1
 125 112 l 1
 95 150 l 1
 95 74 l 1
 95 -2 l 1
EndSplineSet
Validated: 1
EndChar

StartChar: E
Encoding: 69 69 4
Width: 256
Flags: HW
LayerCount: 2
Fore
SplineSet
64 128 m 1
 64 166 l 1
 64 205 l 1
 128 186 l 1
 192 166 l 1
 128 147 l 1
 64 128 l 1
81 146 m 1
 114 156 l 1
 147 166 l 1
 114 176 l 1
 81 186 l 1
 81 166 l 1
 81 146 l 1
64 -51 m 1
 64 -13 l 1
 64 26 l 1
 128 6 l 1
 192 -13 l 1
 128 -32 l 1
 64 -51 l 1
64 38 m 1
 64 77 l 1
 64 115 l 1
 128 96 l 1
 192 77 l 1
 128 58 l 1
 64 38 l 1
81 57 m 1
 114 67 l 1
 147 77 l 1
 114 87 l 1
 81 97 l 1
 81 77 l 1
 81 57 l 1
81 -32 m 1
 114 -23 l 1
 147 -13 l 1
 114 -3 l 1
 81 7 l 1
 81 -13 l 1
 81 -32 l 1
EndSplineSet
Validated: 1
EndChar

StartChar: F
Encoding: 70 70 5
Width: 256
Flags: HW
LayerCount: 2
Fore
SplineSet
118 120 m 1
 118 156 l 1
 118 191 l 1
 182 173 l 1
 246 156 l 1
 182 138 l 1
 118 120 l 1
136 139 m 1
 169 148 l 1
 202 157 l 1
 169 166 l 1
 136 175 l 1
 136 157 l 1
 136 139 l 1
118 51 m 1
 118 76 l 1
 118 102 l 1
 165 89 l 1
 211 76 l 1
 165 63 l 1
 118 51 l 1
130 62 m 1
 154 69 l 1
 178 75 l 1
 154 82 l 1
 130 88 l 1
 130 75 l 1
 130 62 l 1
55 179 m 1
 80 179 l 1
 105 179 l 1
 92 64 l 1
 80 -51 l 1
 68 64 l 1
 55 179 l 1
70 158 m 1
 76 102 l 1
 81 46 l 1
 86 102 l 1
 91 158 l 1
 81 158 l 1
 70 158 l 1
EndSplineSet
Validated: 1
EndChar

StartChar: G
Encoding: 71 71 6
Width: 256
Flags: HW
LayerCount: 2
Fore
SplineSet
28 30 m 1
 126 30 l 1
 224 30 l 1
 175 -7 l 1
 126 -43 l 1
 77 -7 l 1
 28 30 l 1
74 15 m 1
 100 -5 l 1
 126 -24 l 1
 152 -5 l 1
 178 15 l 1
 126 15 l 1
 74 15 l 1
28 30 m 1
 55 83 l 1
 82 137 l 1
 109 83 l 1
 136 30 l 1
 82 30 l 1
 28 30 l 1
52 44 m 1
 81 44 l 1
 109 44 l 1
 95 73 l 1
 81 102 l 1
 66 73 l 1
 52 44 l 1
113 74 m 1
 98 106 l 1
 82 137 l 1
 117 136 l 1
 153 136 l 1
 133 105 l 1
 113 74 l 1
116 94 m 1
 127 112 l 1
 138 130 l 1
 118 130 l 1
 98 131 l 1
 107 112 l 1
 116 94 l 1
177 30 m 1
 189 49 l 1
 201 69 l 1
 212 49 l 1
 224 30 l 1
 201 30 l 1
 177 30 l 1
189 35 m 1
 201 35 l 1
 213 35 l 1
 207 45 l 1
 201 56 l 1
 195 45 l 1
 189 35 l 1
178 30 m 1
 167 49 l 1
 157 68 l 1
 179 68 l 1
 201 69 l 1
 189 49 l 1
 178 30 l 1
178 44 m 1
 184 53 l 1
 189 63 l 1
 178 63 l 1
 167 63 l 1
 173 53 l 1
 178 44 l 1
EndSplineSet
Validated: 5
EndChar

StartChar: H
Encoding: 72 72 7
Width: 256
Flags: HW
LayerCount: 2
Fore
SplineSet
30 205 m 1
 68 205 l 1
 106 205 l 1
 87 77 l 1
 68 -51 l 1
 49 77 l 1
 30 205 l 1
52 175 m 1
 60 108 l 1
 68 42 l 1
 76 108 l 1
 84 175 l 1
 68 175 l 1
 52 175 l 1
148 205 m 1
 186 205 l 1
 224 205 l 1
 205 77 l 1
 186 -51 l 1
 167 77 l 1
 148 205 l 1
170 175 m 1
 178 108 l 1
 186 42 l 1
 194 108 l 1
 202 175 l 1
 186 175 l 1
 170 175 l 1
161 68 m 1
 128 68 l 1
 94 68 l 1
 111 98 l 1
 128 127 l 1
 144 98 l 1
 161 68 l 1
146 78 m 1
 137 94 l 1
 128 110 l 1
 118 94 l 1
 109 78 l 1
 128 78 l 1
 146 78 l 1
EndSplineSet
Validated: 1
EndChar

StartChar: I
Encoding: 73 73 8
Width: 256
Flags: HW
LayerCount: 2
Fore
SplineSet
158 205 m 1
 143 140 l 1
 128 75 l 1
 113 140 l 1
 98 205 l 1
 128 205 l 1
 158 205 l 1
143 191 m 1
 128 191 l 1
 113 191 l 1
 121 154 l 1
 128 117 l 1
 136 154 l 1
 143 191 l 1
158 -55 m 1
 128 -55 l 1
 98 -55 l 1
 113 10 l 1
 128 75 l 1
 143 10 l 1
 158 -55 l 1
143 -41 m 1
 136 -4 l 1
 128 32 l 1
 121 -4 l 1
 113 -41 l 1
 128 -41 l 1
 143 -41 l 1
EndSplineSet
Validated: 5
EndChar

StartChar: J
Encoding: 74 74 9
Width: 256
InSpiro: 1
Flags: HW
LayerCount: 2
Fore
SplineSet
202.584960938 208.946289062 m 1
 186.96875 82.828125 l 1
 171.353515625 -43.291015625 l 1
 155.737304688 82.828125 l 1
 140.122070312 208.946289062 l 1
 171.353515625 208.946289062 l 1
 202.584960938 208.946289062 l 1
  Spiro
    202.585 208.947 v
    186.969 82.8276 v
    171.354 -43.291 v
    155.738 82.8276 v
    140.122 208.947 v
    171.354 208.947 v
    0 0 z
  EndSpiro
186.33984375 183.712890625 m 1
 171.495117188 183.712890625 l 1
 156.650390625 183.712890625 l 1
 164.072265625 114.516601562 l 1
 171.495117188 45.3203125 l 1
 178.916992188 114.516601562 l 1
 186.33984375 183.712890625 l 1
  Spiro
    186.34 183.712 v
    171.495 183.712 v
    156.65 183.712 v
    164.072 114.517 v
    171.495 45.3203 v
    178.917 114.517 v
    0 0 z
  EndSpiro
55.1376953125 -36.015625 m 1
 73.0263671875 -16.611328125 l 1
 90.9150390625 2.7939453125 l 1
 126.203125 -21.203125 l 1
 161.491210938 -45.2001953125 l 1
 108.314453125 -40.6083984375 l 1
 55.1376953125 -36.015625 l 1
  Spiro
    55.1375 -36.016 v
    73.0266 -16.6113 v
    90.9156 2.7935 v
    126.203 -21.2033 v
    161.491 -45.2 v
    108.314 -40.6079 v
    0 0 z
  EndSpiro
72.97265625 -26.8974609375 m 1
 103.063476562 -30.3056640625 l 1
 133.154296875 -33.71484375 l 1
 112.03515625 -20.57421875 l 1
 90.9150390625 -7.43359375 l 1
 81.9443359375 -17.1650390625 l 1
 72.97265625 -26.8974609375 l 1
  Spiro
    72.9728 -26.897 v
    103.064 -30.3059 v
    133.155 -33.7151 v
    112.035 -20.5746 v
    90.9156 -7.43375 v
    81.9441 -17.1655 v
    0 0 z
  EndSpiro
82.5537109375 11.861328125 m 1
 62.421875 5.6220703125 l 1
 42.291015625 -0.6162109375 l 1
 44.072265625 29.2333984375 l 1
 45.8525390625 59.0830078125 l 1
 64.203125 35.47265625 l 1
 82.5537109375 11.861328125 l 1
  Spiro
    82.5533 11.8612 v
    62.4223 5.62225 v
    42.2912 -0.616499 v
    44.0719 29.2333 v
    45.8527 59.0831 v
    64.203 35.4723 v
    0 0 z
  EndSpiro
68.3173828125 15.421875 m 1
 58.4140625 29.4150390625 l 1
 48.5107421875 43.4091796875 l 1
 48.2568359375 26.267578125 l 1
 48.00390625 9.126953125 l 1
 58.1611328125 12.2744140625 l 1
 68.3173828125 15.421875 l 1
  Spiro
    68.3174 15.422 v
    58.4141 29.4155 v
    48.5105 43.409 v
    48.2573 26.2678 v
    48.0038 9.1265 v
    58.1606 12.2743 v
    0 0 z
  EndSpiro
EndSplineSet
EndChar

StartChar: K
Encoding: 75 75 10
Width: 256
Flags: HW
LayerCount: 2
Fore
SplineSet
95 -18 m 1
 122 1 l 1
 149 20 l 1
 191 -16 l 1
 232 -51 l 1
 164 -35 l 1
 95 -18 l 1
128 -15 m 1
 156 -21 l 1
 184 -28 l 1
 167 -14 l 1
 150 1 l 1
 139 -7 l 1
 128 -15 l 1
88 75 m 1
 137 102 l 1
 187 128 l 1
 168 82 l 1
 149 36 l 1
 118 56 l 1
 88 75 l 1
115 75 m 1
 128 67 l 1
 141 59 l 1
 149 78 l 1
 157 97 l 1
 136 86 l 1
 115 75 l 1
94 203 m 1
 75 100 l 1
 57 -2 l 1
 39 100 l 1
 20 203 l 1
 57 203 l 1
 94 203 l 1
71 194 m 1
 57 194 l 1
 42 194 l 1
 50 127 l 1
 57 60 l 1
 64 127 l 1
 71 194 l 1
EndSplineSet
Validated: 1
EndChar

StartChar: L
Encoding: 76 76 11
Width: 256
Flags: HW
LayerCount: 2
Fore
SplineSet
50 195 m 1
 82 195 l 1
 114 195 l 1
 98 73 l 1
 82 -49 l 1
 66 73 l 1
 50 195 l 1
65 173 m 1
 73 93 l 1
 82 14 l 1
 90 93 l 1
 99 173 l 1
 82 173 l 1
 65 173 l 1
106 -46 m 1
 106 -19 l 1
 106 8 l 1
 171 -5 l 1
 236 -19 l 1
 171 -33 l 1
 106 -46 l 1
119 -33 m 1
 154 -26 l 1
 190 -18 l 1
 154 -11 l 1
 119 -3 l 1
 119 -18 l 1
 119 -33 l 1
EndSplineSet
Validated: 1
EndChar

StartChar: M
Encoding: 77 77 12
Width: 256
Flags: HW
LayerCount: 2
Fore
SplineSet
0 -51 m 1
 30 22 l 1
 60 96 l 1
 90 22 l 1
 121 -51 l 1
 60 -51 l 1
 0 -51 l 1
31 -26 m 1
 60 -26 l 1
 89 -26 l 1
 74 9 l 1
 60 44 l 1
 45 9 l 1
 31 -26 l 1
86 91 m 1
 127 91 l 1
 168 91 l 1
 148 29 l 1
 127 -33 l 1
 107 29 l 1
 86 91 l 1
109 67 m 1
 118 40 l 1
 127 14 l 1
 136 40 l 1
 145 67 l 1
 127 67 l 1
 109 67 l 1
134 -51 m 1
 164 22 l 1
 194 96 l 1
 224 22 l 1
 254 -51 l 1
 194 -51 l 1
 134 -51 l 1
165 -26 m 1
 194 -26 l 1
 223 -26 l 1
 208 9 l 1
 194 44 l 1
 179 9 l 1
 165 -26 l 1
EndSplineSet
Validated: 1
EndChar

StartChar: N
Encoding: 78 78 13
Width: 256
Flags: HW
LayerCount: 2
Fore
SplineSet
46 -47 m 1
 63 73 l 1
 80 193 l 1
 97 73 l 1
 114 -47 l 1
 80 -47 l 1
 46 -47 l 1
63 -21 m 1
 79 -21 l 1
 96 -21 l 1
 87 37 l 1
 79 95 l 1
 71 37 l 1
 63 -21 l 1
142 193 m 1
 176 193 l 1
 210 193 l 1
 193 73 l 1
 176 -47 l 1
 159 73 l 1
 142 193 l 1
162 161 m 1
 169 110 l 1
 176 58 l 1
 184 110 l 1
 191 161 l 1
 176 161 l 1
 162 161 l 1
137 -51 m 1
 113 71 l 1
 88 193 l 1
 129 80 l 1
 169 -33 l 1
 153 -42 l 1
 137 -51 l 1
138 -14 m 1
 145 -10 l 1
 151 -6 l 1
 135 40 l 1
 119 86 l 1
 128 36 l 1
 138 -14 l 1
EndSplineSet
Validated: 1
EndChar

StartChar: O
Encoding: 79 79 14
Width: 256
Flags: HW
LayerCount: 2
Fore
SplineSet
37 -11 m 1
 82 64 l 1
 128 138 l 1
 174 64 l 1
 219 -11 l 1
 128 -11 l 1
 37 -11 l 1
66 5 m 1
 128 5 l 1
 189 5 l 1
 158 55 l 1
 128 105 l 1
 97 55 l 1
 66 5 l 1
EndSplineSet
Validated: 1
EndChar

StartChar: P
Encoding: 80 80 15
Width: 256
Flags: HW
LayerCount: 2
Fore
SplineSet
135 56 m 1
 135 131 l 1
 135 205 l 1
 190 168 l 1
 244 131 l 1
 190 94 l 1
 135 56 l 1
147 81 m 1
 184 106 l 1
 220 130 l 1
 184 155 l 1
 147 180 l 1
 147 130 l 1
 147 81 l 1
137 -53 m 1
 100 -53 l 1
 62 -53 l 1
 81 46 l 1
 100 145 l 1
 118 46 l 1
 137 -53 l 1
125 -31 m 1
 112 35 l 1
 100 101 l 1
 87 35 l 1
 75 -31 l 1
 100 -31 l 1
 125 -31 l 1
EndSplineSet
Validated: 1
EndChar

StartChar: Q
Encoding: 81 81 16
Width: 256
Flags: HW
LayerCount: 2
Fore
SplineSet
176 -17 m 1
 116 47 l 1
 56 110 l 1
 140 135 l 1
 223 160 l 1
 200 72 l 1
 176 -17 l 1
168 16 m 1
 184 75 l 1
 200 135 l 1
 144 118 l 1
 88 101 l 1
 128 59 l 1
 168 16 l 1
33 -4 m 1
 75 11 l 1
 116 26 l 1
 103 -2 l 1
 91 -30 l 1
 62 -17 l 1
 33 -4 l 1
48 -4 m 1
 68 -12 l 1
 87 -21 l 1
 95 -2 l 1
 104 16 l 1
 76 6 l 1
 48 -4 l 1
EndSplineSet
Validated: 1
EndChar

StartChar: R
Encoding: 82 82 17
Width: 256
Flags: HW
LayerCount: 2
Fore
SplineSet
100 50 m 1
 100 124 l 1
 100 197 l 1
 142 160 l 1
 184 124 l 1
 142 87 l 1
 100 50 l 1
109 74 m 1
 137 99 l 1
 165 123 l 1
 137 148 l 1
 109 173 l 1
 109 123 l 1
 109 74 l 1
96 -51 m 1
 68 -51 l 1
 41 -51 l 1
 54 61 l 1
 68 173 l 1
 82 61 l 1
 96 -51 l 1
87 -40 m 1
 78 36 l 1
 68 111 l 1
 59 36 l 1
 50 -40 l 1
 68 -40 l 1
 87 -40 l 1
104 43 m 1
 169 5 l 1
 235 -33 l 1
 188 -39 l 1
 141 -45 l 1
 122 -1 l 1
 104 43 l 1
122 25 m 1
 134 -5 l 1
 147 -34 l 1
 178 -30 l 1
 210 -26 l 1
 166 -1 l 1
 122 25 l 1
EndSplineSet
Validated: 1
EndChar

StartChar: S
Encoding: 83 83 18
Width: 256
Flags: HW
LayerCount: 2
Fore
SplineSet
83 23 m 1
 144 -7 l 1
 205 -36 l 1
 101 -43 l 1
 -3 -51 l 1
 40 -14 l 1
 83 23 l 1
87 8 m 1
 59 -16 l 1
 30 -41 l 1
 99 -36 l 1
 169 -31 l 1
 128 -11 l 1
 87 8 l 1
106 27 m 1
 134 50 l 1
 161 73 l 1
 183 19 l 1
 205 -36 l 1
 156 -4 l 1
 106 27 l 1
121 27 m 1
 154 6 l 1
 188 -15 l 1
 173 22 l 1
 158 59 l 1
 139 43 l 1
 121 27 l 1
148 82 m 1
 121 59 l 1
 93 36 l 1
 71 90 l 1
 50 145 l 1
 99 113 l 1
 148 82 l 1
134 82 m 1
 100 103 l 1
 67 124 l 1
 82 87 l 1
 97 50 l 1
 115 66 l 1
 134 82 l 1
171 86 m 1
 110 115 l 1
 50 145 l 1
 153 152 l 1
 257 160 l 1
 214 123 l 1
 171 86 l 1
167 101 m 1
 196 125 l 1
 225 150 l 1
 155 145 l 1
 86 140 l 1
 126 120 l 1
 167 101 l 1
EndSplineSet
Validated: 5
EndChar

StartChar: T
Encoding: 84 84 19
Width: 256
Flags: HW
LayerCount: 2
Fore
SplineSet
101 122 m 1
 128 122 l 1
 155 122 l 1
 141 36 l 1
 128 -51 l 1
 114 36 l 1
 101 122 l 1
114 97 m 1
 121 57 l 1
 127 17 l 1
 133 57 l 1
 139 97 l 1
 127 97 l 1
 114 97 l 1
111 140 m 1
 56 152 l 1
 0 165 l 1
 56 177 l 1
 111 189 l 1
 111 165 l 1
 111 140 l 1
94 153 m 1
 94 165 l 1
 94 176 l 1
 68 171 l 1
 41 165 l 1
 68 159 l 1
 94 153 l 1
144 140 m 1
 144 165 l 1
 144 189 l 1
 200 177 l 1
 255 165 l 1
 200 152 l 1
 144 140 l 1
161 153 m 1
 187 159 l 1
 214 165 l 1
 187 171 l 1
 161 176 l 1
 161 165 l 1
 161 153 l 1
EndSplineSet
Validated: 1
EndChar

StartChar: U
Encoding: 85 85 20
Width: 256
Flags: HW
LayerCount: 2
Fore
SplineSet
43 123 m 1
 87 64 l 1
 131 5 l 1
 96 -6 l 1
 60 -17 l 1
 51 53 l 1
 43 123 l 1
56 91 m 1
 62 44 l 1
 68 -3 l 1
 92 5 l 1
 116 12 l 1
 86 51 l 1
 56 91 l 1
204 -17 m 1
 168 -34 l 1
 132 -51 l 1
 96 -34 l 1
 60 -17 l 1
 132 -17 l 1
 204 -17 l 1
178 -21 m 1
 133 -21 l 1
 88 -21 l 1
 111 -32 l 1
 133 -43 l 1
 155 -32 l 1
 178 -21 l 1
220 123 m 1
 211 53 l 1
 203 -17 l 1
 167 -6 l 1
 131 5 l 1
 176 64 l 1
 220 123 l 1
207 91 m 1
 177 51 l 1
 147 12 l 1
 171 5 l 1
 195 -3 l 1
 201 44 l 1
 207 91 l 1
EndSplineSet
Validated: 5
EndChar

StartChar: V
Encoding: 86 86 21
Width: 256
Flags: HW
LayerCount: 2
Fore
SplineSet
72 145 m 1
 128 145 l 1
 184 145 l 1
 156 47 l 1
 128 -51 l 1
 100 47 l 1
 72 145 l 1
90 124 m 1
 109 58 l 1
 128 -8 l 1
 147 58 l 1
 165 124 l 1
 128 124 l 1
 90 124 l 1
EndSplineSet
Validated: 1
EndChar

StartChar: W
Encoding: 87 87 22
Width: 256
Flags: HW
LayerCount: 2
Fore
SplineSet
0 96 m 1
 60 96 l 1
 121 96 l 1
 90 22 l 1
 60 -51 l 1
 30 22 l 1
 0 96 l 1
31 71 m 1
 45 36 l 1
 60 0 l 1
 74 36 l 1
 89 71 l 1
 60 71 l 1
 31 71 l 1
86 -46 m 1
 107 16 l 1
 127 78 l 1
 148 16 l 1
 168 -46 l 1
 127 -46 l 1
 86 -46 l 1
109 -22 m 1
 127 -22 l 1
 145 -22 l 1
 136 4 l 1
 127 31 l 1
 118 4 l 1
 109 -22 l 1
134 96 m 1
 194 96 l 1
 254 96 l 1
 224 22 l 1
 194 -51 l 1
 164 22 l 1
 134 96 l 1
165 71 m 1
 179 36 l 1
 194 0 l 1
 208 36 l 1
 223 71 l 1
 194 71 l 1
 165 71 l 1
EndSplineSet
Validated: 1
EndChar

StartChar: X
Encoding: 88 88 23
Width: 256
Flags: HW
LayerCount: 2
Fore
SplineSet
127 122 m 1
 98 93 l 1
 69 64 l 1
 42 120 l 1
 14 176 l 1
 70 149 l 1
 127 122 l 1
100 119 m 1
 70 134 l 1
 40 148 l 1
 55 118 l 1
 69 88 l 1
 85 104 l 1
 100 119 l 1
127 122 m 1
 183 149 l 1
 240 176 l 1
 212 120 l 1
 184 64 l 1
 155 93 l 1
 127 122 l 1
153 119 m 1
 169 104 l 1
 184 88 l 1
 199 118 l 1
 214 148 l 1
 184 134 l 1
 153 119 l 1
127 6 m 1
 70 -21 l 1
 14 -49 l 1
 42 8 l 1
 69 64 l 1
 98 35 l 1
 127 6 l 1
100 8 m 1
 85 24 l 1
 69 39 l 1
 55 9 l 1
 40 -21 l 1
 70 -6 l 1
 100 8 l 1
127 6 m 1
 155 35 l 1
 184 64 l 1
 212 8 l 1
 240 -49 l 1
 183 -21 l 1
 127 6 l 1
153 8 m 1
 184 -6 l 1
 214 -21 l 1
 199 9 l 1
 184 39 l 1
 169 24 l 1
 153 8 l 1
EndSplineSet
Validated: 5
EndChar

StartChar: Y
Encoding: 89 89 24
Width: 256
Flags: HW
LayerCount: 2
Fore
SplineSet
107 -51 m 1
 117 25 l 1
 128 102 l 1
 139 25 l 1
 149 -51 l 1
 128 -51 l 1
 107 -51 l 1
118 -30 m 1
 128 -30 l 1
 139 -30 l 1
 133 15 l 1
 128 60 l 1
 123 15 l 1
 118 -30 l 1
128 102 m 1
 86 109 l 1
 44 115 l 1
 22 153 l 1
 0 191 l 1
 64 146 l 1
 128 102 l 1
90 118 m 1
 65 135 l 1
 40 153 l 1
 48 138 l 1
 57 123 l 1
 74 120 l 1
 90 118 l 1
128 102 m 1
 192 146 l 1
 256 191 l 1
 234 153 l 1
 212 115 l 1
 170 109 l 1
 128 102 l 1
166 118 m 1
 182 120 l 1
 199 123 l 1
 208 138 l 1
 216 153 l 1
 191 135 l 1
 166 118 l 1
EndSplineSet
Validated: 5
EndChar

StartChar: Z
Encoding: 90 90 25
Width: 256
Flags: HW
LayerCount: 2
Fore
SplineSet
171 23 m 1
 214 -14 l 1
 257 -51 l 1
 153 -43 l 1
 50 -36 l 1
 110 -7 l 1
 171 23 l 1
167 8 m 1
 126 -11 l 1
 86 -31 l 1
 155 -36 l 1
 225 -41 l 1
 196 -16 l 1
 167 8 l 1
148 27 m 1
 99 -4 l 1
 50 -36 l 1
 71 19 l 1
 93 73 l 1
 121 50 l 1
 148 27 l 1
134 27 m 1
 115 43 l 1
 97 59 l 1
 82 22 l 1
 67 -15 l 1
 100 6 l 1
 134 27 l 1
106 82 m 1
 156 113 l 1
 205 145 l 1
 183 90 l 1
 161 36 l 1
 134 59 l 1
 106 82 l 1
121 82 m 1
 139 66 l 1
 158 50 l 1
 173 87 l 1
 188 124 l 1
 154 103 l 1
 121 82 l 1
83 86 m 1
 40 123 l 1
 -3 160 l 1
 101 152 l 1
 205 145 l 1
 144 115 l 1
 83 86 l 1
87 101 m 1
 128 120 l 1
 169 140 l 1
 99 145 l 1
 30 150 l 1
 59 125 l 1
 87 101 l 1
EndSplineSet
Validated: 5
EndChar

StartChar: a
Encoding: 97 97 26
Width: 256
Flags: HW
LayerCount: 2
Fore
SplineSet
192 -51 m 5
 128 -51 l 5
 64 -51 l 5
 96 61 l 5
 128 173 l 5
 160 61 l 5
 192 -51 l 5
171 -27 m 5
 150 48 l 5
 128 123 l 5
 107 48 l 5
 85 -27 l 5
 128 -27 l 5
 171 -27 l 5
EndSplineSet
Validated: 1
EndChar

StartChar: b
Encoding: 98 98 27
Width: 256
Flags: HW
LayerCount: 2
Fore
SplineSet
102 77 m 1
 102 141 l 1
 102 205 l 1
 154 173 l 1
 205 141 l 1
 154 109 l 1
 102 77 l 1
113 98 m 1
 148 119 l 1
 182 141 l 1
 148 162 l 1
 113 183 l 1
 113 141 l 1
 113 98 l 1
102 -51 m 1
 102 13 l 1
 102 77 l 1
 154 45 l 1
 205 13 l 1
 154 -19 l 1
 102 -51 l 1
113 -30 m 1
 148 -9 l 1
 182 13 l 1
 148 34 l 1
 113 55 l 1
 113 13 l 1
 113 -30 l 1
102 -51 m 1
 69 13 l 1
 35 77 l 1
 69 141 l 1
 102 205 l 1
 102 77 l 1
 102 -51 l 1
95 -9 m 1
 95 76 l 1
 95 162 l 1
 73 119 l 1
 50 76 l 1
 73 33 l 1
 95 -9 l 1
EndSplineSet
Validated: 5
EndChar

StartChar: c
Encoding: 99 99 28
Width: 256
Flags: HW
LayerCount: 2
Fore
SplineSet
110 96 m 1
 110 138 l 1
 110 179 l 1
 161 158 l 1
 212 138 l 1
 161 117 l 1
 110 96 l 1
121 110 m 1
 155 124 l 1
 189 138 l 1
 155 151 l 1
 121 165 l 1
 121 138 l 1
 121 110 l 1
110 -51 m 1
 76 6 l 1
 42 64 l 1
 76 122 l 1
 110 179 l 1
 110 64 l 1
 110 -51 l 1
102 -14 m 1
 102 64 l 1
 102 141 l 1
 80 102 l 1
 57 64 l 1
 80 25 l 1
 102 -14 l 1
110 -51 m 1
 110 -10 l 1
 110 32 l 1
 161 11 l 1
 212 -10 l 1
 161 -30 l 1
 110 -51 l 1
121 -38 m 1
 155 -24 l 1
 189 -10 l 1
 155 4 l 1
 121 18 l 1
 121 -10 l 1
 121 -38 l 1
EndSplineSet
Validated: 5
EndChar

StartChar: d
Encoding: 100 100 29
Width: 256
Flags: HW
LayerCount: 2
Fore
SplineSet
77 -51 m 1
 77 77 l 1
 77 205 l 1
 128 141 l 1
 179 77 l 1
 128 13 l 1
 77 -51 l 1
95 -2 m 1
 125 36 l 1
 156 74 l 1
 125 112 l 1
 95 150 l 1
 95 74 l 1
 95 -2 l 1
EndSplineSet
Validated: 1
EndChar

StartChar: e
Encoding: 101 101 30
Width: 256
Flags: HW
LayerCount: 2
Fore
SplineSet
64 128 m 1
 64 166 l 1
 64 205 l 1
 128 186 l 1
 192 166 l 1
 128 147 l 1
 64 128 l 1
81 146 m 1
 114 156 l 1
 147 166 l 1
 114 176 l 1
 81 186 l 1
 81 166 l 1
 81 146 l 1
64 -51 m 1
 64 -13 l 1
 64 26 l 1
 128 6 l 1
 192 -13 l 1
 128 -32 l 1
 64 -51 l 1
64 38 m 1
 64 77 l 1
 64 115 l 1
 128 96 l 1
 192 77 l 1
 128 58 l 1
 64 38 l 1
81 57 m 1
 114 67 l 1
 147 77 l 1
 114 87 l 1
 81 97 l 1
 81 77 l 1
 81 57 l 1
81 -32 m 1
 114 -23 l 1
 147 -13 l 1
 114 -3 l 1
 81 7 l 1
 81 -13 l 1
 81 -32 l 1
EndSplineSet
Validated: 1
EndChar

StartChar: f
Encoding: 102 102 31
Width: 256
Flags: HW
LayerCount: 2
Fore
SplineSet
118 120 m 1
 118 156 l 1
 118 191 l 1
 182 173 l 1
 246 156 l 1
 182 138 l 1
 118 120 l 1
136 139 m 1
 169 148 l 1
 202 157 l 1
 169 166 l 1
 136 175 l 1
 136 157 l 1
 136 139 l 1
118 51 m 1
 118 76 l 1
 118 102 l 1
 165 89 l 1
 211 76 l 1
 165 63 l 1
 118 51 l 1
130 62 m 1
 154 69 l 1
 178 75 l 1
 154 82 l 1
 130 88 l 1
 130 75 l 1
 130 62 l 1
55 179 m 1
 80 179 l 1
 105 179 l 1
 92 64 l 1
 80 -51 l 1
 68 64 l 1
 55 179 l 1
70 158 m 1
 76 102 l 1
 81 46 l 1
 86 102 l 1
 91 158 l 1
 81 158 l 1
 70 158 l 1
EndSplineSet
Validated: 1
EndChar

StartChar: g
Encoding: 103 103 32
Width: 256
Flags: HW
LayerCount: 2
Fore
SplineSet
28 30 m 1
 126 30 l 1
 224 30 l 1
 175 -7 l 1
 126 -43 l 1
 77 -7 l 1
 28 30 l 1
74 15 m 1
 100 -5 l 1
 126 -24 l 1
 152 -5 l 1
 178 15 l 1
 126 15 l 1
 74 15 l 1
28 30 m 1
 55 83 l 1
 82 137 l 1
 109 83 l 1
 136 30 l 1
 82 30 l 1
 28 30 l 1
52 44 m 1
 81 44 l 1
 109 44 l 1
 95 73 l 1
 81 102 l 1
 66 73 l 1
 52 44 l 1
113 74 m 1
 98 106 l 1
 82 137 l 1
 117 136 l 1
 153 136 l 1
 133 105 l 1
 113 74 l 1
116 94 m 1
 127 112 l 1
 138 130 l 1
 118 130 l 1
 98 131 l 1
 107 112 l 1
 116 94 l 1
177 30 m 1
 189 49 l 1
 201 69 l 1
 212 49 l 1
 224 30 l 1
 201 30 l 1
 177 30 l 1
189 35 m 1
 201 35 l 1
 213 35 l 1
 207 45 l 1
 201 56 l 1
 195 45 l 1
 189 35 l 1
178 30 m 1
 167 49 l 1
 157 68 l 1
 179 68 l 1
 201 69 l 1
 189 49 l 1
 178 30 l 1
178 44 m 1
 184 53 l 1
 189 63 l 1
 178 63 l 1
 167 63 l 1
 173 53 l 1
 178 44 l 1
EndSplineSet
Validated: 5
EndChar

StartChar: h
Encoding: 104 104 33
Width: 256
Flags: HW
LayerCount: 2
Fore
SplineSet
30 205 m 1
 68 205 l 1
 106 205 l 1
 87 77 l 1
 68 -51 l 1
 49 77 l 1
 30 205 l 1
52 175 m 1
 60 108 l 1
 68 42 l 1
 76 108 l 1
 84 175 l 1
 68 175 l 1
 52 175 l 1
148 205 m 1
 186 205 l 1
 224 205 l 1
 205 77 l 1
 186 -51 l 1
 167 77 l 1
 148 205 l 1
170 175 m 1
 178 108 l 1
 186 42 l 1
 194 108 l 1
 202 175 l 1
 186 175 l 1
 170 175 l 1
161 68 m 1
 128 68 l 1
 94 68 l 1
 111 98 l 1
 128 127 l 1
 144 98 l 1
 161 68 l 1
146 78 m 1
 137 94 l 1
 128 110 l 1
 118 94 l 1
 109 78 l 1
 128 78 l 1
 146 78 l 1
EndSplineSet
Validated: 1
EndChar

StartChar: i
Encoding: 105 105 34
Width: 256
Flags: HW
LayerCount: 2
Fore
SplineSet
158 205 m 1
 143 140 l 1
 128 75 l 1
 113 140 l 1
 98 205 l 1
 128 205 l 1
 158 205 l 1
143 191 m 1
 128 191 l 1
 113 191 l 1
 121 154 l 1
 128 117 l 1
 136 154 l 1
 143 191 l 1
158 -55 m 1
 128 -55 l 1
 98 -55 l 1
 113 10 l 1
 128 75 l 1
 143 10 l 1
 158 -55 l 1
143 -41 m 1
 136 -4 l 1
 128 32 l 1
 121 -4 l 1
 113 -41 l 1
 128 -41 l 1
 143 -41 l 1
EndSplineSet
Validated: 5
EndChar

StartChar: j
Encoding: 106 106 35
Width: 256
Flags: HW
LayerCount: 2
Fore
SplineSet
203 203 m 1
 187 77 l 1
 171 -49 l 1
 156 77 l 1
 140 203 l 1
 171 203 l 1
 203 203 l 1
186 178 m 1
 171 178 l 1
 157 178 l 1
 164 109 l 1
 171 39 l 1
 179 109 l 1
 186 178 l 1
55 -42 m 1
 73 -23 l 1
 91 -3 l 1
 126 -27 l 1
 161 -51 l 1
 108 -47 l 1
 55 -42 l 1
73 -33 m 1
 103 -36 l 1
 133 -40 l 1
 112 -27 l 1
 91 -13 l 1
 82 -23 l 1
 73 -33 l 1
83 6 m 1
 62 -0 l 1
 42 -7 l 1
 44 23 l 1
 46 53 l 1
 64 29 l 1
 83 6 l 1
68 9 m 1
 58 23 l 1
 49 37 l 1
 48 20 l 1
 48 3 l 1
 58 6 l 1
 68 9 l 1
EndSplineSet
Validated: 1
EndChar

StartChar: k
Encoding: 107 107 36
Width: 256
Flags: HW
LayerCount: 2
Fore
SplineSet
95 -18 m 1
 122 1 l 1
 149 20 l 1
 191 -16 l 1
 232 -51 l 1
 164 -35 l 1
 95 -18 l 1
128 -15 m 1
 156 -21 l 1
 184 -28 l 1
 167 -14 l 1
 150 1 l 1
 139 -7 l 1
 128 -15 l 1
88 75 m 1
 137 102 l 1
 187 128 l 1
 168 82 l 1
 149 36 l 1
 118 56 l 1
 88 75 l 1
115 75 m 1
 128 67 l 1
 141 59 l 1
 149 78 l 1
 157 97 l 1
 136 86 l 1
 115 75 l 1
94 203 m 1
 75 100 l 1
 57 -2 l 1
 39 100 l 1
 20 203 l 1
 57 203 l 1
 94 203 l 1
71 194 m 1
 57 194 l 1
 42 194 l 1
 50 127 l 1
 57 60 l 1
 64 127 l 1
 71 194 l 1
EndSplineSet
Validated: 1
EndChar

StartChar: l
Encoding: 108 108 37
Width: 256
Flags: HW
LayerCount: 2
Fore
SplineSet
50 195 m 1
 82 195 l 1
 114 195 l 1
 98 73 l 1
 82 -49 l 1
 66 73 l 1
 50 195 l 1
65 173 m 1
 73 93 l 1
 82 14 l 1
 90 93 l 1
 99 173 l 1
 82 173 l 1
 65 173 l 1
106 -46 m 1
 106 -19 l 1
 106 8 l 1
 171 -5 l 1
 236 -19 l 1
 171 -33 l 1
 106 -46 l 1
119 -33 m 1
 154 -26 l 1
 190 -18 l 1
 154 -11 l 1
 119 -3 l 1
 119 -18 l 1
 119 -33 l 1
EndSplineSet
Validated: 1
EndChar

StartChar: m
Encoding: 109 109 38
Width: 256
Flags: HW
LayerCount: 2
Fore
SplineSet
0 -51 m 1
 30 22 l 1
 60 96 l 1
 90 22 l 1
 121 -51 l 1
 60 -51 l 1
 0 -51 l 1
31 -26 m 1
 60 -26 l 1
 89 -26 l 1
 74 9 l 1
 60 44 l 1
 45 9 l 1
 31 -26 l 1
86 91 m 1
 127 91 l 1
 168 91 l 1
 148 29 l 1
 127 -33 l 1
 107 29 l 1
 86 91 l 1
109 67 m 1
 118 40 l 1
 127 14 l 1
 136 40 l 1
 145 67 l 1
 127 67 l 1
 109 67 l 1
134 -51 m 1
 164 22 l 1
 194 96 l 1
 224 22 l 1
 254 -51 l 1
 194 -51 l 1
 134 -51 l 1
165 -26 m 1
 194 -26 l 1
 223 -26 l 1
 208 9 l 1
 194 44 l 1
 179 9 l 1
 165 -26 l 1
EndSplineSet
Validated: 1
EndChar

StartChar: n
Encoding: 110 110 39
Width: 256
Flags: HW
LayerCount: 2
Fore
SplineSet
46 -47 m 1
 63 73 l 1
 80 193 l 1
 97 73 l 1
 114 -47 l 1
 80 -47 l 1
 46 -47 l 1
63 -21 m 1
 79 -21 l 1
 96 -21 l 1
 87 37 l 1
 79 95 l 1
 71 37 l 1
 63 -21 l 1
142 193 m 1
 176 193 l 1
 210 193 l 1
 193 73 l 1
 176 -47 l 1
 159 73 l 1
 142 193 l 1
162 161 m 1
 169 110 l 1
 176 58 l 1
 184 110 l 1
 191 161 l 1
 176 161 l 1
 162 161 l 1
137 -51 m 1
 113 71 l 1
 88 193 l 1
 129 80 l 1
 169 -33 l 1
 153 -42 l 1
 137 -51 l 1
138 -14 m 1
 145 -10 l 1
 151 -6 l 1
 135 40 l 1
 119 86 l 1
 128 36 l 1
 138 -14 l 1
EndSplineSet
Validated: 1
EndChar

StartChar: o
Encoding: 111 111 40
Width: 256
Flags: HW
LayerCount: 2
Fore
SplineSet
37 -11 m 1
 82 64 l 1
 128 138 l 1
 174 64 l 1
 219 -11 l 1
 128 -11 l 1
 37 -11 l 1
66 5 m 1
 128 5 l 1
 189 5 l 1
 158 55 l 1
 128 105 l 1
 97 55 l 1
 66 5 l 1
EndSplineSet
Validated: 1
EndChar

StartChar: p
Encoding: 112 112 41
Width: 256
Flags: HW
LayerCount: 2
Fore
SplineSet
135 56 m 1
 135 131 l 1
 135 205 l 1
 190 168 l 1
 244 131 l 1
 190 94 l 1
 135 56 l 1
147 81 m 1
 184 106 l 1
 220 130 l 1
 184 155 l 1
 147 180 l 1
 147 130 l 1
 147 81 l 1
137 -53 m 1
 100 -53 l 1
 62 -53 l 1
 81 46 l 1
 100 145 l 1
 118 46 l 1
 137 -53 l 1
125 -31 m 1
 112 35 l 1
 100 101 l 1
 87 35 l 1
 75 -31 l 1
 100 -31 l 1
 125 -31 l 1
EndSplineSet
Validated: 1
EndChar

StartChar: q
Encoding: 113 113 42
Width: 256
Flags: HW
LayerCount: 2
Fore
SplineSet
176 -17 m 1
 116 47 l 1
 56 110 l 1
 140 135 l 1
 223 160 l 1
 200 72 l 1
 176 -17 l 1
168 16 m 1
 184 75 l 1
 200 135 l 1
 144 118 l 1
 88 101 l 1
 128 59 l 1
 168 16 l 1
33 -4 m 1
 75 11 l 1
 116 26 l 1
 103 -2 l 1
 91 -30 l 1
 62 -17 l 1
 33 -4 l 1
48 -4 m 1
 68 -12 l 1
 87 -21 l 1
 95 -2 l 1
 104 16 l 1
 76 6 l 1
 48 -4 l 1
EndSplineSet
Validated: 1
EndChar

StartChar: r
Encoding: 114 114 43
Width: 256
Flags: HW
LayerCount: 2
Fore
SplineSet
100 50 m 1
 100 124 l 1
 100 197 l 1
 142 160 l 1
 184 124 l 1
 142 87 l 1
 100 50 l 1
109 74 m 1
 137 99 l 1
 165 123 l 1
 137 148 l 1
 109 173 l 1
 109 123 l 1
 109 74 l 1
96 -51 m 1
 68 -51 l 1
 41 -51 l 1
 54 61 l 1
 68 173 l 1
 82 61 l 1
 96 -51 l 1
87 -40 m 1
 78 36 l 1
 68 111 l 1
 59 36 l 1
 50 -40 l 1
 68 -40 l 1
 87 -40 l 1
104 43 m 1
 169 5 l 1
 235 -33 l 1
 188 -39 l 1
 141 -45 l 1
 122 -1 l 1
 104 43 l 1
122 25 m 1
 134 -5 l 1
 147 -34 l 1
 178 -30 l 1
 210 -26 l 1
 166 -1 l 1
 122 25 l 1
EndSplineSet
Validated: 1
EndChar

StartChar: s
Encoding: 115 115 44
Width: 256
Flags: HW
LayerCount: 2
Fore
SplineSet
83 23 m 1
 144 -7 l 1
 205 -36 l 1
 101 -43 l 1
 -3 -51 l 1
 40 -14 l 1
 83 23 l 1
87 8 m 1
 59 -16 l 1
 30 -41 l 1
 99 -36 l 1
 169 -31 l 1
 128 -11 l 1
 87 8 l 1
106 27 m 1
 134 50 l 1
 161 73 l 1
 183 19 l 1
 205 -36 l 1
 156 -4 l 1
 106 27 l 1
121 27 m 1
 154 6 l 1
 188 -15 l 1
 173 22 l 1
 158 59 l 1
 139 43 l 1
 121 27 l 1
148 82 m 1
 121 59 l 1
 93 36 l 1
 71 90 l 1
 50 145 l 1
 99 113 l 1
 148 82 l 1
134 82 m 1
 100 103 l 1
 67 124 l 1
 82 87 l 1
 97 50 l 1
 115 66 l 1
 134 82 l 1
171 86 m 1
 110 115 l 1
 50 145 l 1
 153 152 l 1
 257 160 l 1
 214 123 l 1
 171 86 l 1
167 101 m 1
 196 125 l 1
 225 150 l 1
 155 145 l 1
 86 140 l 1
 126 120 l 1
 167 101 l 1
EndSplineSet
Validated: 5
EndChar

StartChar: t
Encoding: 116 116 45
Width: 256
Flags: HW
LayerCount: 2
Fore
SplineSet
101 122 m 1
 128 122 l 1
 155 122 l 1
 141 36 l 1
 128 -51 l 1
 114 36 l 1
 101 122 l 1
114 97 m 1
 121 57 l 1
 127 17 l 1
 133 57 l 1
 139 97 l 1
 127 97 l 1
 114 97 l 1
111 140 m 1
 56 152 l 1
 0 165 l 1
 56 177 l 1
 111 189 l 1
 111 165 l 1
 111 140 l 1
94 153 m 1
 94 165 l 1
 94 176 l 1
 68 171 l 1
 41 165 l 1
 68 159 l 1
 94 153 l 1
144 140 m 1
 144 165 l 1
 144 189 l 1
 200 177 l 1
 255 165 l 1
 200 152 l 1
 144 140 l 1
161 153 m 1
 187 159 l 1
 214 165 l 1
 187 171 l 1
 161 176 l 1
 161 165 l 1
 161 153 l 1
EndSplineSet
Validated: 1
EndChar

StartChar: u
Encoding: 117 117 46
Width: 256
Flags: HW
LayerCount: 2
Fore
SplineSet
43 123 m 1
 87 64 l 1
 131 5 l 1
 96 -6 l 1
 60 -17 l 1
 51 53 l 1
 43 123 l 1
56 91 m 1
 62 44 l 1
 68 -3 l 1
 92 5 l 1
 116 12 l 1
 86 51 l 1
 56 91 l 1
204 -17 m 1
 168 -34 l 1
 132 -51 l 1
 96 -34 l 1
 60 -17 l 1
 132 -17 l 1
 204 -17 l 1
178 -21 m 1
 133 -21 l 1
 88 -21 l 1
 111 -32 l 1
 133 -43 l 1
 155 -32 l 1
 178 -21 l 1
220 123 m 1
 211 53 l 1
 203 -17 l 1
 167 -6 l 1
 131 5 l 1
 176 64 l 1
 220 123 l 1
207 91 m 1
 177 51 l 1
 147 12 l 1
 171 5 l 1
 195 -3 l 1
 201 44 l 1
 207 91 l 1
EndSplineSet
Validated: 5
EndChar

StartChar: v
Encoding: 118 118 47
Width: 256
Flags: HW
LayerCount: 2
Fore
SplineSet
72 145 m 1
 128 145 l 1
 184 145 l 1
 156 47 l 1
 128 -51 l 1
 100 47 l 1
 72 145 l 1
90 124 m 1
 109 58 l 1
 128 -8 l 1
 147 58 l 1
 165 124 l 1
 128 124 l 1
 90 124 l 1
EndSplineSet
Validated: 1
EndChar

StartChar: w
Encoding: 119 119 48
Width: 256
Flags: HW
LayerCount: 2
Fore
SplineSet
0 96 m 1
 60 96 l 1
 121 96 l 1
 90 22 l 1
 60 -51 l 1
 30 22 l 1
 0 96 l 1
31 71 m 1
 45 36 l 1
 60 0 l 1
 74 36 l 1
 89 71 l 1
 60 71 l 1
 31 71 l 1
86 -46 m 1
 107 16 l 1
 127 78 l 1
 148 16 l 1
 168 -46 l 1
 127 -46 l 1
 86 -46 l 1
109 -22 m 1
 127 -22 l 1
 145 -22 l 1
 136 4 l 1
 127 31 l 1
 118 4 l 1
 109 -22 l 1
134 96 m 1
 194 96 l 1
 254 96 l 1
 224 22 l 1
 194 -51 l 1
 164 22 l 1
 134 96 l 1
165 71 m 1
 179 36 l 1
 194 0 l 1
 208 36 l 1
 223 71 l 1
 194 71 l 1
 165 71 l 1
EndSplineSet
Validated: 1
EndChar

StartChar: x
Encoding: 120 120 49
Width: 256
Flags: HW
LayerCount: 2
Fore
SplineSet
127 122 m 1
 98 93 l 1
 69 64 l 1
 42 120 l 1
 14 176 l 1
 70 149 l 1
 127 122 l 1
100 119 m 1
 70 134 l 1
 40 148 l 1
 55 118 l 1
 69 88 l 1
 85 104 l 1
 100 119 l 1
127 122 m 1
 183 149 l 1
 240 176 l 1
 212 120 l 1
 184 64 l 1
 155 93 l 1
 127 122 l 1
153 119 m 1
 169 104 l 1
 184 88 l 1
 199 118 l 1
 214 148 l 1
 184 134 l 1
 153 119 l 1
127 6 m 1
 70 -21 l 1
 14 -49 l 1
 42 8 l 1
 69 64 l 1
 98 35 l 1
 127 6 l 1
100 8 m 1
 85 24 l 1
 69 39 l 1
 55 9 l 1
 40 -21 l 1
 70 -6 l 1
 100 8 l 1
127 6 m 1
 155 35 l 1
 184 64 l 1
 212 8 l 1
 240 -49 l 1
 183 -21 l 1
 127 6 l 1
153 8 m 1
 184 -6 l 1
 214 -21 l 1
 199 9 l 1
 184 39 l 1
 169 24 l 1
 153 8 l 1
EndSplineSet
Validated: 5
EndChar

StartChar: y
Encoding: 121 121 50
Width: 256
Flags: HW
LayerCount: 2
Fore
SplineSet
107 -51 m 1
 117 25 l 1
 128 102 l 1
 139 25 l 1
 149 -51 l 1
 128 -51 l 1
 107 -51 l 1
118 -30 m 1
 128 -30 l 1
 139 -30 l 1
 133 15 l 1
 128 60 l 1
 123 15 l 1
 118 -30 l 1
128 102 m 1
 86 109 l 1
 44 115 l 1
 22 153 l 1
 0 191 l 1
 64 146 l 1
 128 102 l 1
90 118 m 1
 65 135 l 1
 40 153 l 1
 48 138 l 1
 57 123 l 1
 74 120 l 1
 90 118 l 1
128 102 m 1
 192 146 l 1
 256 191 l 1
 234 153 l 1
 212 115 l 1
 170 109 l 1
 128 102 l 1
166 118 m 1
 182 120 l 1
 199 123 l 1
 208 138 l 1
 216 153 l 1
 191 135 l 1
 166 118 l 1
EndSplineSet
Validated: 5
EndChar

StartChar: z
Encoding: 122 122 51
Width: 256
Flags: HW
LayerCount: 2
Fore
SplineSet
171 23 m 1
 214 -14 l 1
 257 -51 l 1
 153 -43 l 1
 50 -36 l 1
 110 -7 l 1
 171 23 l 1
167 8 m 1
 126 -11 l 1
 86 -31 l 1
 155 -36 l 1
 225 -41 l 1
 196 -16 l 1
 167 8 l 1
148 27 m 1
 99 -4 l 1
 50 -36 l 1
 71 19 l 1
 93 73 l 1
 121 50 l 1
 148 27 l 1
134 27 m 1
 115 43 l 1
 97 59 l 1
 82 22 l 1
 67 -15 l 1
 100 6 l 1
 134 27 l 1
106 82 m 1
 156 113 l 1
 205 145 l 1
 183 90 l 1
 161 36 l 1
 134 59 l 1
 106 82 l 1
121 82 m 1
 139 66 l 1
 158 50 l 1
 173 87 l 1
 188 124 l 1
 154 103 l 1
 121 82 l 1
83 86 m 1
 40 123 l 1
 -3 160 l 1
 101 152 l 1
 205 145 l 1
 144 115 l 1
 83 86 l 1
87 101 m 1
 128 120 l 1
 169 140 l 1
 99 145 l 1
 30 150 l 1
 59 125 l 1
 87 101 l 1
EndSplineSet
Validated: 5
EndChar
